<?xml version="1.0" standalone="no"?>
<!DOCTYPE svg PUBLIC "-//W3C//DTD SVG 20010904//EN"
 "http://www.w3.org/TR/2001/REC-SVG-20010904/DTD/svg10.dtd">
<svg version="1.0" xmlns="http://www.w3.org/2000/svg"
 width="96.000000pt" height="100.000000pt" viewBox="0 0 96.000000 100.000000"
 preserveAspectRatio="xMidYMid meet">

<g transform="translate(0.000000,100.000000) scale(0.100000,-0.100000)"
fill="#000000" stroke="none">
<path d="M763 990 c-31 -13 -49 -55 -56 -131 -3 -36 -14 -86 -23 -110 -24 -60
-84 -151 -98 -146 -6 2 -14 31 -18 65 -4 34 -16 81 -27 106 -28 64 -102 140
-164 167 -185 81 -460 -63 -354 -187 20 -23 37 -29 112 -40 84 -12 177 -48
229 -89 30 -23 5 -41 -77 -54 -121 -20 -213 -86 -261 -190 -16 -36 -21 -65
-20 -131 0 -97 22 -155 80 -217 31 -33 38 -35 75 -30 64 8 79 31 90 128 10 86
44 178 86 229 30 35 49 15 56 -59 19 -215 211 -344 416 -282 135 41 191 132
123 200 -23 23 -38 29 -97 34 -39 3 -95 15 -124 26 -53 20 -131 68 -131 80 0
4 13 20 28 37 22 24 39 32 79 37 100 12 193 80 240 175 24 49 28 69 28 142 -1
73 -5 93 -30 143 -46 93 -97 123 -162 97z m76 -61 c39 -43 64 -111 65 -179 2
-119 -72 -223 -181 -256 -71 -21 -81 -19 -92 22 -9 34 -7 40 23 78 62 76 106
190 106 275 0 45 20 81 46 81 7 0 22 -10 33 -21z m-474 -43 c81 -38 132 -109
150 -208 l7 -38 -45 0 c-37 0 -57 8 -103 40 -73 51 -152 80 -237 87 -60 5 -70
9 -79 29 -14 31 9 58 77 90 69 33 161 33 230 0z m188 -336 c29 -32 36 -84 17
-121 -12 -22 -61 -49 -89 -49 -82 0 -130 100 -80 164 43 54 105 57 152 6z
m-227 -72 c1 -34 -7 -53 -42 -105 -49 -72 -84 -173 -84 -243 0 -31 -6 -54 -16
-64 -32 -33 -61 -14 -100 64 -23 44 -28 68 -28 125 0 73 13 108 60 172 28 37
135 93 178 93 30 0 31 -2 32 -42z m250 -183 c73 -56 179 -95 261 -95 42 0 73
-19 73 -45 0 -36 -89 -88 -172 -100 -134 -20 -268 87 -293 233 l-7 42 46 0
c37 0 55 -7 92 -35z"/>
</g>
</svg>
