<?xml version="1.0" standalone="no"?>
<!DOCTYPE svg PUBLIC "-//W3C//DTD SVG 20010904//EN"
 "http://www.w3.org/TR/2001/REC-SVG-20010904/DTD/svg10.dtd">
<svg version="1.0" xmlns="http://www.w3.org/2000/svg"
 width="96.000000pt" height="100.000000pt" viewBox="0 0 96.000000 100.000000"
 preserveAspectRatio="xMidYMid meet">

<g transform="translate(0.000000,100.000000) scale(0.100000,-0.100000)"
fill="#000000" stroke="none">
<path d="M763 990 c-31 -13 -49 -55 -56 -131 -3 -36 -14 -86 -23 -110 -24 -60
-84 -151 -98 -146 -6 2 -14 31 -18 65 -4 34 -16 81 -27 106 -28 64 -102 140
-164 167 -185 81 -460 -63 -354 -187 20 -23 37 -29 112 -40 84 -12 177 -48
229 -89 30 -23 5 -41 -77 -54 -121 -20 -213 -86 -261 -190 -16 -36 -21 -65
-20 -131 0 -97 22 -155 80 -217 31 -33 38 -35 75 -30 64 8 79 31 90 128 10 86
44 178 86 229 30 35 49 15 56 -59 19 -215 211 -344 416 -282 135 41 191 132
123 200 -23 23 -38 29 -97 34 -39 3 -95 15 -124 26 -53 20 -131 68 -131 80 0
4 13 20 28 37 22 24 39 32 79 37 100 12 193 80 240 175 24 49 28 69 28 142 -1
73 -5 93 -30 143 -46 93 -97 123 -162 97z m-210 -440 c29 -32 36 -84 17 -121
-12 -22 -61 -49 -89 -49 -82 0 -130 100 -80 164 43 54 105 57 152 6z"/>
</g>
</svg>
